<?xml version="1.0" encoding="UTF-8"?>
<!DOCTYPE svg PUBLIC "-//W3C//DTD SVG 1.1//EN" "http://www.w3.org/Graphics/SVG/1.1/DTD/svg11.dtd">
<!-- Creator: CorelDRAW 2020 (64-Bit) -->
<svg xmlns="http://www.w3.org/2000/svg" xml:space="preserve" width="85.0117mm" height="144.028mm" version="1.1" style="shape-rendering:geometricPrecision; text-rendering:geometricPrecision; image-rendering:optimizeQuality; fill-rule:evenodd; clip-rule:evenodd"
viewBox="0 0 3055.31 5176.35"
 xmlns:xlink="http://www.w3.org/1999/xlink"
 xmlns:xodm="http://www.corel.com/coreldraw/odm/2003">
 <defs>
  <style type="text/css">
   <![CDATA[
    .fil0 {fill:#201E1E}
   ]]>
  </style>
 </defs>
 <g id="Capa_x0020_1">
  <metadata id="CorelCorpID_0Corel-Layer"/>
  <path class="fil0" d="M1527.65 1060.92c843.71,0 1527.66,683.95 1527.66,1527.65 0,843.71 -683.95,1527.66 -1527.66,1527.66 -843.7,0 -1527.65,-683.95 -1527.65,-1527.66 0,-843.7 683.95,-1527.65 1527.65,-1527.65zm0 142.25c765.14,0 1385.4,620.27 1385.4,1385.4 0,765.14 -620.26,1385.4 -1385.4,1385.4 -765.14,0 -1385.4,-620.26 -1385.4,-1385.4 0,-765.14 620.26,-1385.4 1385.4,-1385.4z"/>
  <path class="fil0" d="M577.56 1270.27c57.62,-214.5 103.68,-582.02 103.68,-775.56l0 -419.25c0,-41.51 33.96,-75.46 75.46,-75.46l1547 0c41.51,0 75.46,33.96 75.46,75.46l0 442.89c0,170.98 43.96,547.39 100.52,751.91l-2.1 0c-267.17,-192.86 -595.25,-306.57 -949.93,-306.57 -354.68,0 -682.76,113.71 -949.93,306.57l-0.17 0z"/>
  <path class="fil0" d="M577.56 3906.09c57.62,214.5 103.68,582.02 103.68,775.56l0 419.25c0,41.51 33.96,75.46 75.46,75.46l1547 0c41.51,0 75.46,-33.96 75.46,-75.46l0 -442.89c0,-170.98 43.96,-547.39 100.52,-751.91l-2.1 0c-267.17,192.86 -595.25,306.57 -949.93,306.57 -354.68,0 -682.76,-113.71 -949.93,-306.57l-0.17 0z"/>
 </g>
</svg>
