<?xml version="1.0" encoding="UTF-8"?>
<!DOCTYPE svg PUBLIC "-//W3C//DTD SVG 1.1//EN" "http://www.w3.org/Graphics/SVG/1.1/DTD/svg11.dtd">
<!-- Creator: CorelDRAW 2020 (64-Bit) -->
<svg xmlns="http://www.w3.org/2000/svg" xml:space="preserve" width="176.33mm" height="108.829mm" version="1.1" style="shape-rendering:geometricPrecision; text-rendering:geometricPrecision; image-rendering:optimizeQuality; fill-rule:evenodd; clip-rule:evenodd"
viewBox="0 0 17781.03 10974.26"
 xmlns:xlink="http://www.w3.org/1999/xlink"
 xmlns:xodm="http://www.corel.com/coreldraw/odm/2003">
 <defs>
  <style type="text/css">
   <![CDATA[
    .fil1 {fill:#96989A}
    .fil6 {fill:#373435;fill-rule:nonzero}
    .fil0 {fill:url(#id0)}
    .fil3 {fill:url(#id1)}
    .fil2 {fill:url(#id2)}
    .fil5 {fill:url(#id3);fill-rule:nonzero}
    .fil4 {fill:url(#id4);fill-rule:nonzero}
   ]]>
  </style>
  <linearGradient id="id0" gradientUnits="userSpaceOnUse" x1="17299.66" y1="6643.86" x2="11521.23" y2="4329.85">
   <stop offset="0" style="stop-opacity:1; stop-color:#848688"/>
   <stop offset="0.427451" style="stop-opacity:1; stop-color:#ABACAE"/>
   <stop offset="0.639216" style="stop-opacity:1; stop-color:#D2D3D5"/>
   <stop offset="1" style="stop-opacity:1; stop-color:#96989A"/>
  </linearGradient>
  <linearGradient id="id1" gradientUnits="userSpaceOnUse" xlink:href="#id0" x1="11697.49" y1="9479.39" x2="15496.96" y2="9282.49">
  </linearGradient>
  <linearGradient id="id2" gradientUnits="userSpaceOnUse" xlink:href="#id0" x1="13527.12" y1="739.79" x2="16928.55" y2="2444.19">
  </linearGradient>
  <linearGradient id="id3" gradientUnits="userSpaceOnUse" x1="15392.29" y1="4812.8" x2="15392.29" y2="7302.3">
   <stop offset="0" style="stop-opacity:1; stop-color:#606062"/>
   <stop offset="1" style="stop-opacity:1; stop-color:#D2D3D5"/>
  </linearGradient>
  <linearGradient id="id4" gradientUnits="userSpaceOnUse" xlink:href="#id3" x1="14407.45" y1="3891.61" x2="14407.45" y2="7691.74">
  </linearGradient>
 </defs>
 <g id="Capa_x0020_1">
  <metadata id="CorelCorpID_0Corel-Layer"/>
  <g id="_2858577841216">
   <path class="fil0" d="M15048.16 2440.62c1682.41,352.21 2760.72,2001.56 2408.52,3683.96 -352.21,1682.4 -2001.56,2760.71 -3683.97,2408.51 -1682.39,-352.21 -2760.7,-2001.56 -2408.5,-3683.96 352.21,-1682.4 2001.56,-2760.71 3683.95,-2408.51zm-59.38 283.66c1525.74,319.41 2503.65,1815.18 2184.24,3340.91 -319.41,1525.73 -1815.18,2503.64 -3340.92,2184.23 -1525.72,-319.41 -2503.63,-1815.18 -2184.22,-3340.91 319.41,-1525.73 1815.18,-2503.64 3340.9,-2184.23z"/>
   <rect class="fil1" transform="matrix(0.647039 -0.228602 0.228602 0.647039 17296.8 4014.72)" width="288.15" height="1323.36" rx="100.84" ry="100.84"/>
   <rect class="fil1" transform="matrix(-0.501008 -0.468944 -0.468944 0.501008 17231 7454.99)" width="288.15" height="1323.36" rx="100.84" ry="100.84"/>
   <rect class="fil1" transform="matrix(0.671674 0.140614 -0.0703076 0.33584 17600.2 5922.67)" width="288.15" height="1323.36" rx="100.84" ry="100.84"/>
   <path class="fil2" d="M13066.22 2461.45c204.44,-403.66 449.7,-1117.3 530.5,-1503.21l175.02 -836c17.32,-82.77 99.22,-136.3 181.98,-118.98l3084.81 645.81c82.77,17.32 136.3,99.21 118.98,181.97l-184.89 883.15c-71.37,340.94 -140.86,1109.88 -113.45,1541.31l-4.18 -0.88c-452.24,-496.09 -1058.98,-859.8 -1766.23,-1007.86 -707.25,-148.06 -1408.93,-58.27 -2022.19,214.76l-0.33 -0.07z"/>
   <path class="fil3" d="M11965.89 7717.43c25.35,451.77 -36.23,1203.86 -117.02,1589.78l-175.01 836c-17.33,82.77 36.2,164.65 118.97,181.98l3084.82 645.8c82.76,17.33 164.65,-36.2 181.97,-118.97l184.89 -883.15c71.37,-340.94 316.16,-1073.17 514.32,-1457.39l-4.18 -0.88c-613.27,273.03 -1314.93,362.83 -2022.19,214.77 -707.25,-148.06 -1313.98,-511.77 -1766.23,-1007.87l-0.33 -0.07z"/>
  </g>
  <g id="_2858577839344">
   <polygon class="fil4" points="13885.03,7691.73 12997.49,7691.73 13665.31,4596.32 12365.89,4596.32 12516.68,3891.61 16449.02,3891.61 16298.25,4596.32 14552.86,4596.32 "/>
   <polygon class="fil5" points="14837.93,7302.3 15087.23,6007.46 14716.1,4812.8 14940.5,4812.8 15213.84,5742.24 15819.81,4812.8 16068.5,4812.8 15290.24,6034.23 15044.57,7302.3 "/>
  </g>
  <path class="fil6" d="M-0 2697.13l887.52 0 -477.16 2705.51 815.95 0 477.16 -2705.51 892.3 0 109.74 -644.17 -2590.99 0 -114.52 644.17zm2524.19 2705.51l815.95 0 591.68 -3349.69 -815.94 0 -591.69 3349.69zm1407.63 0l815.95 0 353.1 -2018.4 400.82 2018.4 658.48 0 1107.03 -2008.85 -357.88 2008.85 815.95 0 591.69 -3349.69 -959.1 0 -1336.05 2319.02 -534.43 -2319.02 -963.86 0 -591.69 3349.69zm7023.84 -3349.69l-2051.8 0 -591.69 3349.69 2051.8 0 114.52 -644.17 -1235.86 0 133.61 -749.15 1092.7 0 109.75 -615.53 -1092.71 0 119.29 -696.66 1235.85 0 114.52 -644.17z"/>
  <path class="fil6" d="M2779.32 7541.75l-197.24 1103.73 381.9 0 197.24 -1103.73 1275.78 -1821.35 -432.25 0 -977.83 1473.03 -457.44 -1473.03 -428.05 0 637.89 1821.35zm4603.74 -642.09c0,-713.43 -482.62,-1212.84 -1229.63,-1212.84 -986.22,0 -1724.83,767.99 -1724.83,1770.99 0,717.63 486.81,1217.03 1225.43,1217.03 994.61,0 1729.02,-767.98 1729.02,-1775.19zm-2559.97 532.98c0,-751.2 516.2,-1401.69 1275.79,-1401.69 549.77,0 889.7,339.93 889.7,893.89 0,755.4 -524.59,1405.88 -1279.99,1405.88 -545.57,0 -885.5,-344.12 -885.5,-898.09zm2979.63 134.3c-134.29,759.59 297.96,1107.91 902.28,1107.91 604.32,0 1166.67,-348.32 1300.97,-1107.91l327.33 -1846.54 -381.89 0 -327.35 1846.54c-96.52,532.98 -419.66,767.98 -856.12,767.98 -428.06,0 -675.66,-235.01 -583.34,-767.98l327.33 -1846.54 -381.89 0 -327.35 1846.54z"/>
 </g>
</svg>
