<?xml version="1.0" encoding="UTF-8"?>
<!DOCTYPE svg PUBLIC "-//W3C//DTD SVG 1.1//EN" "http://www.w3.org/Graphics/SVG/1.1/DTD/svg11.dtd">
<!-- Creator: CorelDRAW 2020 (64-Bit) -->
<svg xmlns="http://www.w3.org/2000/svg" xml:space="preserve" width="182.018mm" height="182.018mm" version="1.1" style="shape-rendering:geometricPrecision; text-rendering:geometricPrecision; image-rendering:optimizeQuality; fill-rule:evenodd; clip-rule:evenodd"
viewBox="0 0 5374.29 5374.29"
 xmlns:xlink="http://www.w3.org/1999/xlink"
 xmlns:xodm="http://www.corel.com/coreldraw/odm/2003">
 <defs>
  <style type="text/css">
   <![CDATA[
    .fil0 {fill:#373435}
   ]]>
  </style>
 </defs>
 <g id="Capa_x0020_1">
  <metadata id="CorelCorpID_0Corel-Layer"/>
  <path class="fil0" d="M2738.09 2355.37c57.89,9.2 110.85,33.18 154.89,67.97l724.74 -425.59c57.43,-33.72 132,-14.33 165.72,43.1l0 0c33.72,57.43 14.33,132 -43.1,165.72l-724.04 425.17c2.99,18.01 4.57,36.5 4.57,55.36 0,185.52 -150.39,335.91 -335.91,335.91 -185.08,0 -335.18,-149.68 -335.9,-334.59l-592.67 -196.31c-63.22,-20.94 -97.81,-89.8 -76.87,-153.01l0 -0c20.94,-63.22 89.8,-97.81 153.01,-76.87l603.1 199.77c50.24,-55.61 118.82,-94.32 196.2,-106.62l0 -740.09c0,-29.22 23.9,-53.12 53.12,-53.12l0 0c29.22,0 53.12,23.9 53.12,53.12l0 740.09zm-53.12 -1552.58c1040.68,0 1884.31,843.63 1884.31,1884.31 0,1040.68 -843.63,1884.31 -1884.31,1884.31 -1040.68,0 -1884.31,-843.63 -1884.31,-1884.31 0,-1040.68 843.63,-1884.31 1884.31,-1884.31zm1114.91 -576.06c136.8,118.46 291.55,205.83 461.69,266.55l-110.28 534.97 -7.69 -4.44c73.63,64.63 142.94,134.07 207.43,207.83l-4.99 -8.64 534.97 -110.28c59.24,170.99 149.58,324.03 266.55,461.69l-362.99 408.16 -4.55 -7.88c31.33,92.15 56.78,187.02 75.84,284.18l0 -10.26 518.44 171.98c-32.48,177.7 -34.19,355.4 0,533.11l-518.44 171.98 0 -9.96c-19.04,96.95 -44.41,191.64 -75.67,283.6l4.39 -7.6 362.99 408.16c-116.98,137.66 -207.31,290.69 -266.55,461.68l-534.97 -110.28 5.13 -8.88c-64.62,73.9 -134.04,143.49 -207.84,208.23l7.96 -4.59 110.28 534.97c-170.13,60.73 -324.88,148.09 -461.68,266.55l-408.16 -362.99 2.11 -1.22c-87.59,29.62 -177.62,53.95 -269.75,72.5l1.61 0 -171.98 518.44c-177.7,-32.48 -355.4,-34.19 -533.11,0l-171.8 -517.88c-91.16,-18.23 -180.29,-42.07 -267.03,-71.13l-407.36 362.28c-137.66,-116.98 -290.69,-207.31 -461.68,-266.55l110.03 -533.78c-69.3,-61.09 -134.77,-126.43 -195.95,-195.65l-533.52 109.98c-60.73,-170.13 -148.09,-324.88 -266.55,-461.68l361.19 -406.14c-29.43,-87.33 -53.6,-177.07 -72.04,-268.9l-515.89 -171.13c34.19,-177.7 32.48,-355.4 0,-533.11l515.86 -171.13c18.44,-91.85 42.56,-181.64 71.99,-268.99l-361.12 -406.06c118.46,-136.8 205.83,-291.55 266.55,-461.69l533.5 109.98c61.2,-69.23 126.64,-134.62 195.96,-195.72l-110.02 -533.7c170.99,-59.24 324.03,-149.58 461.69,-266.55l407.34 362.27c86.76,-29.07 175.88,-52.99 267.07,-71.22l171.76 -517.78c177.7,34.19 355.4,32.48 533.11,0l171.98 518.44 -1.13 0c91.74,18.5 181.41,42.67 268.65,72.14l-1.49 -0.86 408.16 -362.99zm-1114.91 652.64l0 0c53.91,0 98.01,44.1 98.01,98.01l0 139.53c0,53.91 -44.1,98.01 -98.01,98.01l0 0c-53.91,0 -98.01,-44.1 -98.01,-98.01l0 -139.53c0,-53.91 44.1,-98.01 98.01,-98.01zm-775.37 3150.7l0 0c31.27,18.06 42.08,58.41 24.03,89.67l-62.85 108.87c-18.05,31.27 -58.4,42.08 -89.67,24.03l-0 0c-31.27,-18.06 -42.08,-58.41 -24.03,-89.67l62.85 -108.86c18.05,-31.27 58.4,-42.08 89.67,-24.03zm1679.23 -2908.51l0 0c31.27,18.05 42.08,58.4 24.03,89.67l-62.86 108.87c-18.05,31.27 -58.4,42.08 -89.67,24.03l-0.01 -0c-31.27,-18.05 -42.08,-58.4 -24.03,-89.67l62.85 -108.87c18.06,-31.27 58.41,-42.08 89.67,-24.03zm-2246.83 2340.9l0 0c18.05,31.27 7.24,71.62 -24.03,89.67l-108.86 62.85c-31.27,18.06 -71.62,7.24 -89.67,-24.03l-0 -0c-18.06,-31.27 -7.24,-71.62 24.03,-89.67l108.86 -62.85c31.27,-18.05 71.62,-7.24 89.67,24.03zm2908.51 -1679.23l0 0.01c18.06,31.27 7.24,71.62 -24.03,89.67l-108.87 62.86c-31.27,18.05 -71.62,7.24 -89.67,-24.03l-0 -0.01c-18.06,-31.27 -7.24,-71.62 24.03,-89.67l108.87 -62.85c31.27,-18.05 71.62,-7.24 89.67,24.03zm-222.56 1679.23l0 -0.01c18.06,-31.27 58.41,-42.08 89.67,-24.03l108.86 62.85c31.27,18.05 42.08,58.4 24.03,89.67l-0 0c-18.05,31.27 -58.4,42.08 -89.67,24.03l-108.86 -62.85c-31.27,-18.05 -42.08,-58.4 -24.03,-89.67zm-2908.51 -1679.23l0 -0.01c18.05,-31.27 58.4,-42.08 89.67,-24.03l108.87 62.85c31.27,18.06 42.08,58.41 24.03,89.67l-0 0.01c-18.05,31.27 -58.4,42.08 -89.67,24.03l-108.87 -62.86c-31.27,-18.05 -42.08,-58.4 -24.03,-89.67zm2340.9 2246.83l0 -0c31.27,-18.05 71.62,-7.24 89.67,24.03l62.85 108.86c18.06,31.27 7.24,71.62 -24.03,89.67l-0 0c-31.27,18.06 -71.62,7.24 -89.67,-24.03l-62.85 -108.86c-18.06,-31.27 -7.24,-71.62 24.03,-89.67zm-1679.23 -2908.51l0.01 -0c31.27,-18.06 71.62,-7.24 89.67,24.03l62.85 108.87c18.05,31.27 7.24,71.62 -24.03,89.67l-0.01 0c-31.27,18.06 -71.62,7.24 -89.67,-24.03l-62.85 -108.87c-18.05,-31.27 -7.24,-71.62 24.03,-89.67zm-903.86 1565.54l0 0c0,-53.91 44.1,-98.01 98.01,-98.01l139.53 0c53.91,0 98.01,44.1 98.01,98.01l0 0c0,53.91 -44.1,98.01 -98.01,98.01l-139.53 0c-53.91,0 -98.01,-44.1 -98.01,-98.01zm3279.91 0l0 0c0,-53.91 44.1,-98.01 98.01,-98.01l139.53 0c53.91,0 98.01,44.1 98.01,98.01l0 0c0,53.91 -44.1,98.01 -98.01,98.01l-139.53 0c-53.91,0 -98.01,-44.1 -98.01,-98.01zm-1472.18 1472.18l0 0c53.91,0 98.01,44.1 98.01,98.01l0 139.53c0,53.91 -44.1,98.01 -98.01,98.01l0 0c-53.91,0 -98.01,-44.1 -98.01,-98.01l0 -139.53c0,-53.91 44.1,-98.01 98.01,-98.01zm53.12 -1592.29c43.82,20.5 74.24,65.55 74.24,117.85 0,71.6 -57.02,129.63 -127.37,129.63 -70.34,0 -127.37,-58.04 -127.37,-129.63 0,-52.29 30.43,-97.35 74.25,-117.85l0 -93.55c-95.91,23.77 -167.01,110.41 -167.01,213.66 0,121.57 98.56,220.13 220.13,220.13 121.57,0 220.13,-98.56 220.13,-220.13 0,-103.26 -71.1,-189.89 -167.01,-213.66l0 93.55z"/>
 </g>
</svg>
