<?xml version="1.0" encoding="UTF-8"?>
<!DOCTYPE svg PUBLIC "-//W3C//DTD SVG 1.1//EN" "http://www.w3.org/Graphics/SVG/1.1/DTD/svg11.dtd">
<!-- Creator: CorelDRAW 2020 (64-Bit) -->
<svg xmlns="http://www.w3.org/2000/svg" xml:space="preserve" width="105.989mm" height="105.989mm" version="1.1" style="shape-rendering:geometricPrecision; text-rendering:geometricPrecision; image-rendering:optimizeQuality; fill-rule:evenodd; clip-rule:evenodd"
viewBox="0 0 551.55 551.55"
 xmlns:xlink="http://www.w3.org/1999/xlink"
 xmlns:xodm="http://www.corel.com/coreldraw/odm/2003">
 <defs>
  <style type="text/css">
   <![CDATA[
    .fil0 {fill:#201E1E}
   ]]>
  </style>
 </defs>
 <g id="Capa_x0020_1">
  <metadata id="CorelCorpID_0Corel-Layer"/>
  <path class="fil0" d="M275.55 82.39c106.8,0 193.38,86.58 193.38,193.38 0,106.8 -86.58,193.38 -193.38,193.38 -106.8,0 -193.38,-86.58 -193.38,-193.38 0,-106.8 86.58,-193.38 193.38,-193.38zm114.42 -59.12c14.04,12.16 29.92,21.12 47.38,27.36l-11.32 54.9 -0.79 -0.46c7.56,6.63 14.67,13.76 21.29,21.33l-0.51 -0.89 54.9 -11.32c6.08,17.55 15.35,33.25 27.36,47.38l-37.25 41.89 -0.47 -0.81c3.21,9.46 5.83,19.19 7.78,29.16l0 -1.05 53.21 17.65c-3.33,18.24 -3.51,36.47 0,54.71l-53.21 17.65 0 -1.02c-1.95,9.95 -4.56,19.67 -7.77,29.11l0.45 -0.78 37.25 41.89c-12.01,14.13 -21.28,29.83 -27.36,47.38l-54.9 -11.32 0.53 -0.91c-6.63,7.58 -13.76,14.73 -21.33,21.37l0.82 -0.47 11.32 54.9c-17.46,6.23 -33.34,15.2 -47.38,27.36l-41.89 -37.25 0.22 -0.12c-8.99,3.04 -18.23,5.54 -27.68,7.44l0.16 0 -17.65 53.21c-18.24,-3.33 -36.47,-3.51 -54.71,0l-17.63 -53.15c-9.36,-1.87 -18.5,-4.32 -27.4,-7.3l-41.81 37.18c-14.13,-12.01 -29.83,-21.28 -47.38,-27.36l11.29 -54.78c-7.11,-6.27 -13.83,-12.98 -20.11,-20.08l-54.75 11.29c-6.23,-17.46 -15.2,-33.34 -27.36,-47.38l37.07 -41.68c-3.02,-8.96 -5.5,-18.17 -7.39,-27.6l-52.94 -17.56c3.51,-18.24 3.33,-36.47 0,-54.71l52.94 -17.56c1.89,-9.43 4.37,-18.64 7.39,-27.61l-37.06 -41.67c12.16,-14.04 21.12,-29.92 27.36,-47.38l54.75 11.29c6.28,-7.1 13,-13.82 20.11,-20.09l-11.29 -54.77c17.55,-6.08 33.25,-15.35 47.38,-27.36l41.8 37.18c8.9,-2.98 18.05,-5.44 27.41,-7.31l17.63 -53.14c18.24,3.51 36.47,3.33 54.71,0l17.65 53.21 -0.12 0c9.41,1.9 18.62,4.38 27.57,7.4l-0.15 -0.09 41.89 -37.25z"/>
  <path class="fil0" d="M283.53 230.7c7.88,1.25 15.1,4.52 21.1,9.26l98.71 -57.96c7.82,-4.59 17.98,-1.95 22.57,5.87l0 0c4.59,7.82 1.95,17.98 -5.87,22.57l-98.61 57.91c0.41,2.45 0.62,4.97 0.62,7.54 0,25.27 -20.48,45.75 -45.75,45.75 -25.21,0 -45.65,-20.39 -45.75,-45.57l-80.72 -26.74c-8.61,-2.85 -13.32,-12.23 -10.47,-20.84l0 -0c2.85,-8.61 12.23,-13.32 20.84,-10.47l82.14 27.21c6.84,-7.57 16.18,-12.85 26.72,-14.52l0 -100.8c0,-3.98 3.26,-7.23 7.23,-7.23l0 0c3.98,0 7.23,3.26 7.23,7.23l0 100.8zm0 28.82c5.97,2.79 10.11,8.93 10.11,16.05 0,9.75 -7.77,17.66 -17.35,17.66 -9.58,0 -17.35,-7.9 -17.35,-17.66 0,-7.12 4.14,-13.26 10.11,-16.05l0 -12.74c-13.06,3.24 -22.75,15.04 -22.75,29.1 0,16.56 13.42,29.98 29.98,29.98 16.56,0 29.98,-13.42 29.98,-29.98 0,-14.06 -9.68,-25.86 -22.75,-29.1l0 12.74z"/>
 </g>
</svg>
