<?xml version="1.0" encoding="UTF-8"?>
<!DOCTYPE svg PUBLIC "-//W3C//DTD SVG 1.1//EN" "http://www.w3.org/Graphics/SVG/1.1/DTD/svg11.dtd">
<!-- Creator: CorelDRAW 2020 (64-Bit) -->
<svg xmlns="http://www.w3.org/2000/svg" xml:space="preserve" width="321.67mm" height="144.15mm" version="1.1" style="shape-rendering:geometricPrecision; text-rendering:geometricPrecision; image-rendering:optimizeQuality; fill-rule:evenodd; clip-rule:evenodd"
viewBox="0 0 36043.41 16152.2"
 xmlns:xlink="http://www.w3.org/1999/xlink"
 xmlns:xodm="http://www.corel.com/coreldraw/odm/2003">
 <defs>
  <style type="text/css">
   <![CDATA[
    .fil0 {fill:#848688}
    .fil1 {fill:#606062;fill-rule:nonzero}
    .fil2 {fill:#201E1E;fill-rule:nonzero}
   ]]>
  </style>
 </defs>
 <g id="Capa_x0020_1">
  <metadata id="CorelCorpID_0Corel-Layer"/>
  <g id="_2694094133296">
   <path class="fil0" d="M13701.69 4733.28c0,-2386.52 1934.63,-4321.15 4321.14,-4321.15 2386.52,0 4321.15,1934.63 4321.15,4321.15 0,2386.51 -1934.63,4321.14 -4321.15,4321.14 -2386.51,0 -4321.14,-1934.63 -4321.14,-4321.14zm402.38 0c0,-2164.29 1754.48,-3918.77 3918.76,-3918.77 2164.29,0 3918.77,1754.48 3918.77,3918.77 0,2164.28 -1754.48,3918.76 -3918.77,3918.76 -2164.28,0 -3918.76,-1754.48 -3918.76,-3918.76z"/>
   <rect class="fil0" transform="matrix(-0.44524 -0.732791 0.732791 -0.44524 15201.1 1229.71)" width="320.19" height="1470.49" rx="112.05" ry="112.05"/>
   <rect class="fil0" transform="matrix(-0.44524 0.732791 0.732791 0.44524 19895 340.349)" width="320.19" height="1470.49" rx="112.05" ry="112.05"/>
   <rect class="fil0" transform="matrix(2.27092E-14 -0.85745 0.428729 1.13547E-14 17707.6 274.543)" width="320.19" height="1470.49" rx="112.05" ry="112.05"/>
   <path class="fil0" d="M14293.86 7420.74c-606.72,-162.98 -1646.31,-293.26 -2193.75,-293.26l-1185.88 0c-117.41,0 -213.46,-96.05 -213.46,-213.46l0 -4375.87c0,-117.41 96.05,-213.46 213.46,-213.46l1252.76 0c483.63,0 1548.35,-124.33 2126.86,-284.32l0 5.93c-545.51,755.73 -867.16,1683.72 -867.16,2686.98 0,1003.25 321.65,1931.26 867.16,2686.98l0 0.47z"/>
   <path class="fil0" d="M21749.56 7420.74c606.72,-162.98 1646.31,-293.26 2193.75,-293.26l1185.88 0c117.41,0 213.46,-96.05 213.46,-213.46l0 -4375.87c0,-117.41 -96.05,-213.46 -213.46,-213.46l-1252.76 0c-483.63,0 -1548.35,-124.33 -2126.86,-284.32l0 5.93c545.51,755.73 867.16,1683.72 867.16,2686.98 0,1003.25 -321.65,1931.26 -867.16,2686.98l0 0.47z"/>
  </g>
  <g id="_2694094135360">
   <polygon class="fil1" points="17243.54,7734.12 16011.26,7734.12 16938.49,3436.39 15134.34,3436.39 15343.7,2457.95 20803.45,2457.95 20594.11,3436.39 18170.77,3436.39 "/>
   <polygon class="fil1" points="18566.58,7193.42 18912.7,5395.64 18397.41,3736.95 18708.98,3736.95 19088.5,5027.4 19929.83,3736.95 20275.12,3736.95 19194.57,5432.82 18853.47,7193.42 "/>
  </g>
  <g id="_2694094135120">
   <path class="fil2" d="M-0 11415.27l1553.91 0 -835.44 4736.93 1428.61 0 835.44 -4736.93 1562.27 0 192.15 -1127.85 -4536.42 0 -200.52 1127.85zm4419.47 4736.93l1428.61 0 1035.93 -5864.78 -1428.58 0 -1035.96 5864.78zm2464.54 0l1428.61 0 618.23 -3533.91 701.76 3533.91 1152.9 0 1938.23 -3517.19 -626.59 3517.19 1428.61 0 1035.96 -5864.78 -1679.25 0 -2339.22 4060.24 -935.69 -4060.24 -1687.58 0 -1035.96 5864.78zm12297.67 -5864.78l-3592.39 0 -1035.95 5864.78 3592.39 0 200.5 -1127.85 -2163.8 0 233.94 -1311.64 1913.14 0 192.17 -1077.71 -1913.16 0 208.86 -1219.74 2163.77 0 200.52 -1127.85z"/>
   <path class="fil2" d="M21250.86 13926.55l-386.24 2161.37 747.85 0 386.24 -2161.37 2498.29 -3566.64 -846.44 0 -1914.83 2884.55 -895.78 -2884.55 -838.23 0 1249.14 3566.64zm9015.24 -1257.36c0,-1397.06 -945.08,-2375.02 -2407.9,-2375.02 -1931.27,0 -3377.63,1503.92 -3377.63,3468.04 0,1405.3 953.3,2383.24 2399.68,2383.24 1947.69,0 3385.85,-1503.89 3385.85,-3476.25zm-5013.04 1043.7c0,-1471.04 1010.83,-2744.85 2498.31,-2744.85 1076.58,0 1742.24,665.67 1742.24,1750.46 0,1479.25 -1027.27,2753.06 -2506.53,2753.06 -1068.36,0 -1734.02,-673.89 -1734.02,-1758.67zm5834.84 262.99c-262.97,1487.47 583.48,2169.55 1766.89,2169.55 1183.4,0 2284.62,-682.09 2547.61,-2169.55l641 -3615.98 -747.83 0 -641.02 3615.98c-189.02,1043.7 -821.8,1503.89 -1676.49,1503.89 -838.25,0 -1323.12,-460.19 -1142.32,-1503.89l641 -3615.98 -747.83 0 -641.02 3615.98z"/>
  </g>
 </g>
</svg>
