<?xml version="1.0" encoding="UTF-8"?>
<!DOCTYPE svg PUBLIC "-//W3C//DTD SVG 1.1//EN" "http://www.w3.org/Graphics/SVG/1.1/DTD/svg11.dtd">
<!-- Creator: CorelDRAW 2020 (64-Bit) -->
<svg xmlns="http://www.w3.org/2000/svg" xml:space="preserve" width="10mm" height="10.0022mm" version="1.1" style="shape-rendering:geometricPrecision; text-rendering:geometricPrecision; image-rendering:optimizeQuality; fill-rule:evenodd; clip-rule:evenodd"
viewBox="0 0 19.23 19.23"
 xmlns:xlink="http://www.w3.org/1999/xlink"
 xmlns:xodm="http://www.corel.com/coreldraw/odm/2003">
 <defs>
  <style type="text/css">
   <![CDATA[
    .fil0 {fill:#FEFEFE}
    .fil1 {fill:#201E1E}
    .fil2 {fill:#201E1E;fill-rule:nonzero}
   ]]>
  </style>
 </defs>
 <g id="Capa_x0020_1">
  <metadata id="CorelCorpID_0Corel-Layer"/>
  <circle class="fil0" cx="9.18" cy="9.62" r="8.71"/>
  <path class="fil1" d="M9.18 0.44c5.07,0 9.18,4.11 9.18,9.18 0,5.07 -4.11,9.18 -9.18,9.18 -5.07,0 -9.18,-4.11 -9.18,-9.18 0,-5.07 4.11,-9.18 9.18,-9.18zm0 0.85c4.6,0 8.32,3.73 8.32,8.32 0,4.6 -3.73,8.32 -8.32,8.32 -4.6,0 -8.32,-3.73 -8.32,-8.32 0,-4.6 3.73,-8.32 8.32,-8.32z"/>
  <rect class="fil1" transform="matrix(0.090685 -0.0550998 0.0550997 0.0906852 16.6143 3.62595)" width="5.49" height="25.23" rx="1.92" ry="1.92"/>
  <rect class="fil1" transform="matrix(-0.090685 -0.0550998 -0.0550997 0.0906852 18.5027 13.5926)" width="5.49" height="25.23" rx="1.92" ry="1.92"/>
  <rect class="fil1" x="18.64" y="8.95" width="0.58" height="1.34" rx="0.2" ry="0.1"/>
  <path class="fil1" d="M3.47 2.09c0.34,-0.71 0.62,-1.2 0.62,-1.64 0,-0.25 0.2,-0.45 0.45,-0.45l9.29 0c0.25,0 0.45,0.2 0.45,0.45 0,0.45 0.35,1.21 0.6,1.64l-0.01 0c-1.6,-1.16 -3.58,-1.84 -5.71,-1.84 -2.13,0 -4.1,0.68 -5.71,1.84l-0 0z"/>
  <path class="fil1" d="M3.47 17.14c0.34,0.71 0.62,1.2 0.62,1.64 0,0.25 0.2,0.45 0.45,0.45l9.29 0c0.25,0 0.45,-0.2 0.45,-0.45 0,-0.45 0.35,-1.21 0.6,-1.64l-0.01 0c-1.6,1.16 -3.58,1.84 -5.71,1.84 -2.13,0 -4.1,-0.68 -5.71,-1.84l-0 0z"/>
  <g id="_2858723392832">
   <polygon class="fil2" points="7.63,16.03 5.02,16.03 6.99,6.9 3.16,6.9 3.6,4.82 15.19,4.82 14.75,6.9 9.6,6.9 "/>
   <polygon class="fil2" points="10.44,14.88 11.18,11.06 10.09,7.54 10.75,7.54 11.55,10.28 13.34,7.54 14.07,7.54 11.78,11.14 11.05,14.88 "/>
  </g>
 </g>
</svg>
