<?xml version="1.0" encoding="UTF-8"?>
<!DOCTYPE svg PUBLIC "-//W3C//DTD SVG 1.1//EN" "http://www.w3.org/Graphics/SVG/1.1/DTD/svg11.dtd">
<!-- Creator: CorelDRAW 2020 (64-Bit) -->
<svg xmlns="http://www.w3.org/2000/svg" xml:space="preserve" width="10mm" height="12.4252mm" version="1.1" style="shape-rendering:geometricPrecision; text-rendering:geometricPrecision; image-rendering:optimizeQuality; fill-rule:evenodd; clip-rule:evenodd"
viewBox="0 0 19.23 23.89"
 xmlns:xlink="http://www.w3.org/1999/xlink"
 xmlns:xodm="http://www.corel.com/coreldraw/odm/2003">
 <defs>
  <style type="text/css">
   <![CDATA[
    .fil0 {fill:#FEFEFE}
    .fil3 {fill:#D2D3D5}
    .fil1 {fill:#727376}
    .fil2 {fill:#201E1E}
    .fil4 {fill:#201E1E;fill-rule:nonzero}
   ]]>
  </style>
 </defs>
 <g id="Capa_x0020_1">
  <metadata id="CorelCorpID_0Corel-Layer"/>
  <circle class="fil0" cx="9.18" cy="11.95" r="8.71"/>
  <path class="fil1" d="M9.18 2.77c5.07,0 9.18,4.11 9.18,9.18 0,5.07 -4.11,9.18 -9.18,9.18 -5.07,0 -9.18,-4.11 -9.18,-9.18 0,-5.07 4.11,-9.18 9.18,-9.18zm0 0.85c4.6,0 8.32,3.73 8.32,8.32 0,4.6 -3.73,8.32 -8.32,8.32 -4.6,0 -8.32,-3.73 -8.32,-8.32 0,-4.6 3.73,-8.32 8.32,-8.32z"/>
  <rect class="fil2" transform="matrix(0.090685 -0.0550998 0.0550997 0.0906852 16.6143 5.95492)" width="5.49" height="25.23" rx="1.92" ry="1.92"/>
  <rect class="fil2" transform="matrix(-0.090685 -0.0550998 -0.0550997 0.0906852 18.5027 15.9216)" width="5.49" height="25.23" rx="1.92" ry="1.92"/>
  <rect class="fil2" x="18.64" y="11.28" width="0.58" height="1.34" rx="0.2" ry="0.1"/>
  <path class="fil3" d="M3.47 4.03c0.35,-1.29 0.62,-2.09 0.62,-3.25l0 -0.33c0,-0.25 0.2,-0.45 0.45,-0.45l9.29 0c0.25,0 0.45,0.2 0.45,0.45l0 0.29c0,1.03 0.26,2.05 0.6,3.28l-0.01 0c-1.6,-1.16 -3.58,-1.84 -5.71,-1.84 -2.13,0 -4.1,0.68 -5.71,1.84l-0 0z"/>
  <path class="fil3" d="M3.47 19.86c0.35,1.29 0.62,2.09 0.62,3.25l0 0.33c0,0.25 0.2,0.45 0.45,0.45l9.29 0c0.25,0 0.45,-0.2 0.45,-0.45l0 -0.29c0,-1.03 0.26,-2.05 0.6,-3.28l-0.01 0c-1.6,1.16 -3.58,1.84 -5.71,1.84 -2.13,0 -4.1,-0.68 -5.71,-1.84l-0 0z"/>
  <g id="_2858715944560">
   <polygon class="fil4" points="7.63,18.36 5.02,18.36 6.99,9.23 3.16,9.23 3.6,7.15 15.19,7.15 14.75,9.23 9.6,9.23 "/>
   <polygon class="fil4" points="10.44,17.21 11.18,13.39 10.09,9.87 10.75,9.87 11.55,12.61 13.34,9.87 14.07,9.87 11.78,13.47 11.05,17.21 "/>
  </g>
 </g>
</svg>
